<?xml version="1.0" standalone="no"?>
<!DOCTYPE svg PUBLIC "-//W3C//DTD SVG 20010904//EN"
 "http://www.w3.org/TR/2001/REC-SVG-20010904/DTD/svg10.dtd">
<svg version="1.0" xmlns="http://www.w3.org/2000/svg"
 width="500.000000pt" height="500.000000pt" viewBox="0 0 500.000000 500.000000"
 preserveAspectRatio="xMidYMid meet">

<g transform="translate(0.000000,500.000000) scale(0.100000,-0.100000)"
fill="#000000" stroke="none">
<path d="M2310 3850 c-205 -26 -457 -128 -640 -258 -213 -153 -396 -390 -487
-631 -53 -141 -74 -256 -80 -431 -8 -248 29 -431 127 -637 202 -425 590 -712
1057 -782 102 -15 321 -13 433 4 446 69 808 324 1033 729 15 27 27 54 27 60 0
6 -42 32 -93 58 -94 49 -295 159 -333 183 l-22 14 26 83 c23 76 25 99 26 263
0 144 -3 193 -17 244 -10 35 -17 65 -15 66 4 4 128 71 300 162 70 38 128 73
128 80 0 15 -69 132 -130 218 -56 79 -198 226 -280 290 -162 125 -380 225
-595 271 -82 18 -369 27 -465 14z m385 -145 c124 -20 282 -68 373 -114 103
-52 276 -177 337 -243 122 -131 201 -236 188 -249 -5 -4 -62 -35 -128 -69 -66
-35 -129 -69 -139 -76 -17 -12 -24 -8 -68 36 -52 53 -164 113 -233 126 -22 4
-51 15 -65 24 -244 169 -666 170 -920 1 -14 -9 -47 -22 -74 -29 -83 -21 -159
-64 -217 -121 -67 -67 -109 -166 -135 -313 -20 -113 -14 -301 12 -398 73 -274
269 -493 539 -600 121 -48 197 -62 330 -63 155 -1 261 24 410 97 153 75 237
148 348 300 14 18 20 16 148 -51 171 -90 199 -106 199 -115 0 -9 -91 -128
-154 -202 -75 -87 -247 -219 -351 -271 -349 -173 -724 -190 -1078 -49 -252
100 -477 294 -615 529 -114 194 -181 467 -167 682 24 383 205 716 506 933 177
128 346 200 550 234 112 19 293 19 404 1z m132 -665 c132 -23 213 -48 290 -92
140 -78 123 -162 -47 -232 l-75 -32 -5 -83 c-4 -67 -9 -85 -24 -97 -25 -18
-35 -18 -58 3 -12 11 -18 30 -18 62 0 55 -7 66 -43 80 -21 8 -45 7 -96 -5
-100 -22 -102 -25 -109 -133 -5 -102 -19 -124 -60 -95 -19 13 -22 25 -22 90 0
66 -3 78 -25 99 -30 31 -72 32 -117 5 -44 -27 -78 -25 -124 6 -58 40 -88 48
-128 34 -19 -6 -37 -19 -41 -28 -4 -9 -10 -59 -14 -111 -5 -74 -10 -96 -23
-105 -13 -8 -23 -8 -35 0 -15 9 -19 31 -23 135 -3 68 -8 129 -13 136 -4 6 -33
21 -65 33 -151 56 -196 115 -140 185 26 33 157 97 243 118 57 15 222 42 310
51 85 9 348 -5 462 -24z m-1038 -369 c25 -18 26 -21 20 -97 -6 -80 2 -114 24
-114 29 1 38 20 44 88 5 65 8 72 27 72 39 0 44 -12 48 -117 4 -115 17 -144 79
-175 27 -14 35 -25 39 -54 5 -40 28 -61 54 -51 12 5 16 19 16 57 0 37 6 59 22
80 18 24 23 48 26 120 3 50 6 90 9 90 2 0 17 -7 33 -15 l30 -16 0 -128 c0
-105 3 -131 16 -142 11 -9 20 -10 32 -2 14 8 18 30 20 120 l3 111 37 6 c20 3
50 13 66 21 15 8 32 12 37 9 5 -3 9 -31 9 -63 0 -44 6 -66 23 -92 44 -66 139
-70 191 -8 22 26 26 40 26 99 0 74 6 83 63 94 28 5 37 -8 37 -54 0 -18 11 -42
30 -63 28 -32 29 -39 32 -133 3 -96 4 -99 27 -102 34 -5 41 12 41 108 l0 85
33 15 c48 23 77 73 77 136 0 49 2 53 31 63 18 6 39 11 49 11 9 0 35 14 58 31
l42 31 11 -29 c6 -15 11 -84 12 -153 0 -236 -62 -398 -210 -549 -45 -47 -85
-82 -88 -79 -3 3 12 34 34 68 47 73 93 187 116 289 19 82 16 101 -19 101 -27
0 -34 -14 -61 -135 -30 -133 -107 -259 -224 -367 -48 -45 -71 -58 -134 -77
-126 -37 -122 -41 -125 126 -2 128 -4 144 -22 153 -14 7 -23 6 -34 -6 -13 -13
-16 -42 -16 -156 l0 -141 -62 6 c-142 14 -211 52 -309 172 -68 82 -121 183
-144 275 -22 86 -32 102 -58 98 -31 -4 -33 -44 -7 -125 21 -66 81 -191 121
-250 30 -47 10 -40 -47 15 -173 169 -237 322 -238 572 -1 125 6 190 20 190 3
0 18 -9 33 -19z"/>
<path d="M2375 2974 c-133 -18 -184 -28 -251 -49 -73 -23 -124 -55 -124 -80 0
-7 8 -19 18 -28 16 -15 22 -14 77 4 154 51 343 73 514 58 115 -9 307 -50 342
-72 26 -16 54 12 45 46 -15 60 -215 115 -439 121 -84 3 -165 3 -182 0z"/>
<path d="M2702 2168 c-15 -15 -47 -152 -39 -172 8 -19 40 -21 54 -3 6 6 18 45
27 85 14 57 15 76 6 88 -15 17 -32 18 -48 2z"/>
<path d="M2157 2063 c-13 -12 -7 -41 20 -95 34 -67 51 -88 74 -88 34 0 31 36
-12 114 -38 71 -61 91 -82 69z"/>
</g>
</svg>
